<svg
              width="50"
              height="50"
              viewBox="0 0 44 44"
              fill="none"
              xmlns="http://www.w3.org/2000/svg"
            >
              <g clipPath="url(#clip0_46_334)">
                <path
                  d="M33.4684 0H10.6204C5.05337 0 0.540405 4.6063 0.540405 10.2885V33.6089C0.540405 39.2911 5.05337 43.8974 10.6204 43.8974H33.4684C39.0354 43.8974 43.5484 39.2911 43.5484 33.6089V10.2885C43.5484 4.6063 39.0354 0 33.4684 0Z"
                  fill="#242938"
                />
                <path
                  d="M38.8444 31.3689C38.3553 31.5581 37.8154 31.5575 37.3265 31.3679C36.8378 31.1781 36.4339 30.8122 36.1915 30.3392C34.6689 28.0128 32.9876 25.7914 31.3716 23.5223L30.6708 22.5689C28.7466 25.2003 26.8223 27.7268 25.0662 30.3488C24.8374 30.8008 24.4555 31.1525 23.9915 31.3384C23.5275 31.5245 23.0131 31.5318 22.5442 31.3595L29.7648 21.4725L23.0485 12.5388C23.532 12.3606 24.0609 12.3581 24.5459 12.5318C25.0309 12.7055 25.4424 13.0447 25.7108 13.4922C27.2707 15.8186 28.9989 18.0401 30.7176 20.3951C32.4458 18.0591 34.1552 15.8281 35.7525 13.5208C35.9825 13.0761 36.3647 12.7333 36.8264 12.5575C37.2879 12.3817 37.7967 12.3852 38.2559 12.5674L35.6497 16.0951C34.4821 17.6681 33.3331 19.2508 32.1188 20.7859C32.0209 20.8754 31.9426 20.9848 31.889 21.1072C31.8354 21.2297 31.8077 21.3622 31.8077 21.4963C31.8077 21.6302 31.8354 21.7628 31.889 21.8852C31.9426 22.0076 32.0209 22.117 32.1188 22.2065C34.3514 25.229 36.5651 28.2608 38.8444 31.3689Z"
                  fill="white"
                />
                <path
                  d="M5.24438 21.3485C5.44054 20.3951 5.56199 19.3558 5.83287 18.3834C7.44888 12.5198 14.0344 10.079 18.5648 13.7116C21.2176 15.8378 21.8809 18.8507 21.7502 22.2448H6.80435C6.56149 28.3087 10.849 31.9698 16.3323 30.1011C17.2217 29.7763 18.0179 29.2307 18.6491 28.5132C19.2803 27.7958 19.7263 26.9292 19.9472 25.9917C20.2369 25.0383 20.7039 24.8763 21.5913 25.1527C21.4451 26.3134 21.0431 27.4252 20.4153 28.4045C19.7876 29.3838 18.9505 30.205 17.967 30.8065C16.342 31.7136 14.4777 32.0729 12.6405 31.8331C10.8034 31.5934 9.0876 30.7669 7.73846 29.4718C6.40377 27.94 5.59673 26.0047 5.44054 23.9609C5.44054 23.6368 5.31911 23.3126 5.25373 23.0075C5.24749 22.4418 5.24438 21.8888 5.24438 21.3485ZM6.82303 20.9385H20.3397C20.2555 16.5433 17.5373 13.4256 13.9129 13.397C9.87757 13.3398 6.99118 16.3907 6.81369 20.9195L6.82303 20.9385Z"
                  fill="white"
                />
              </g>
              <defs>
                <clipPath id="clip0_46_334">
                  <rect
                    width="43.008"
                    height="43.8974"
                    fill="white"
                    transform="translate(0.540405)"
                  />
                </clipPath>
              </defs>
            </svg>