<svg
              width="50"
              height="50"
              viewBox="0 0 45 44"
              fill="none"
              xmlns="http://www.w3.org/2000/svg"
            >
              <g clipPath="url(#clip0_46_338)">
                <path
                  d="M34.3207 0H10.8869C5.17708 0 0.548401 4.6063 0.548401 10.2885V33.6089C0.548401 39.2911 5.17708 43.8974 10.8869 43.8974H34.3207C40.0305 43.8974 44.6591 39.2911 44.6591 33.6089V10.2885C44.6591 4.6063 40.0305 0 34.3207 0Z"
                  fill="#00B4E0"
                />
                <path
                  d="M7.52687 19.4167C7.45795 19.4167 7.44072 19.3824 7.47518 19.3309L7.83702 18.868C7.87148 18.8165 7.95764 18.7822 8.02656 18.7822H14.1779C14.2469 18.7822 14.2641 18.8337 14.2296 18.8851L13.9367 19.3309C13.9022 19.3824 13.8161 19.4338 13.7644 19.4338L7.52687 19.4167Z"
                  fill="white"
                />
                <path
                  d="M4.925 20.9943C4.85608 20.9943 4.83885 20.96 4.87331 20.9086L5.23516 20.4456C5.26962 20.3942 5.35577 20.3599 5.42469 20.3599H13.2819C13.3508 20.3599 13.3853 20.4113 13.3681 20.4627L13.2302 20.8743C13.213 20.9429 13.1441 20.9772 13.0751 20.9772L4.925 20.9943Z"
                  fill="white"
                />
                <path
                  d="M9.09486 22.5718C9.02594 22.5718 9.00871 22.5204 9.04317 22.4689L9.2844 22.0403C9.31886 21.9888 9.38779 21.9374 9.45671 21.9374H12.9029C12.9718 21.9374 13.0062 21.9888 13.0062 22.0574L12.9718 22.4689C12.9718 22.5375 12.9029 22.589 12.8512 22.589L9.09486 22.5718Z"
                  fill="white"
                />
                <path
                  d="M26.9804 19.108C25.8949 19.3824 25.1539 19.5881 24.0856 19.8625C23.8272 19.9311 23.8099 19.9482 23.5859 19.691C23.3275 19.3995 23.1379 19.2109 22.7761 19.0394C21.6906 18.5078 20.6395 18.6622 19.6573 19.2966C18.4856 20.0511 17.8826 21.1657 17.8998 22.5546C17.917 23.9264 18.8647 25.0582 20.2259 25.2468C21.3976 25.4011 22.3798 24.9896 23.1552 24.115C23.3103 23.9264 23.4481 23.7207 23.6204 23.4806C23.0001 23.4806 22.2247 23.4806 20.2949 23.4806C19.933 23.4806 19.8469 23.2577 19.9675 22.9662C20.1915 22.4346 20.605 21.5429 20.8463 21.0971C20.8979 20.9942 21.0186 20.8227 21.277 20.8227C22.1558 20.8227 25.3952 20.8227 27.549 20.8227C27.5146 21.2857 27.5146 21.7487 27.4456 22.2117C27.2561 23.4463 26.7909 24.578 26.0327 25.5726C24.7921 27.2016 23.1724 28.2133 21.1219 28.4876C19.4333 28.7106 17.8653 28.3848 16.4869 27.3559C15.2118 26.3957 14.4881 25.1267 14.2986 23.5492C14.0746 21.6801 14.626 19.9997 15.7632 18.525C16.9866 16.9303 18.6063 15.9186 20.5878 15.5585C22.2075 15.267 23.7583 15.4557 25.1539 16.3988C26.0672 16.9989 26.7219 17.8219 27.1527 18.8165C27.2561 18.9708 27.1872 19.0566 26.9804 19.108Z"
                  fill="white"
                />
                <path
                  d="M32.6837 28.5906C31.1157 28.5563 29.6856 28.1104 28.4794 27.0816C27.4628 26.2071 26.8253 25.0925 26.6185 23.7721C26.3084 21.8345 26.8425 20.1197 28.0142 18.5936C29.272 16.9475 30.7884 16.0901 32.8388 15.73C34.5964 15.4214 36.2505 15.5929 37.7496 16.6046C39.1108 17.5305 39.9551 18.7822 40.1791 20.4284C40.472 22.7433 39.8 24.6295 38.1976 26.2414C37.0604 27.3902 35.6647 28.1104 34.0622 28.4362C33.597 28.522 33.1317 28.5391 32.6837 28.5906ZM36.7847 21.663C36.7674 21.4401 36.7674 21.2686 36.733 21.0971C36.4228 19.3995 34.8548 18.4393 33.2179 18.8165C31.6154 19.1766 30.5816 20.1883 30.2025 21.8002C29.8924 23.1377 30.5471 24.4923 31.7877 25.041C32.7354 25.4526 33.6831 25.4011 34.5964 24.9382C35.9576 24.2351 36.6985 23.1377 36.7847 21.663Z"
                  fill="white"
                />
              </g>
              <defs>
                <clipPath id="clip0_46_338">
                  <rect
                    width="44.1107"
                    height="43.8974"
                    fill="white"
                    transform="translate(0.548401)"
                  />
                </clipPath>
              </defs>
            </svg>
