<svg
              width="50"
              height="50"
              viewBox="0 0 45 44"
              fill="none"
              xmlns="http://www.w3.org/2000/svg"
            >
              <g clipPath="url(#clip0_46_330)">
                <path
                  d="M34.202 0H10.7681C5.05837 0 0.429688 4.6063 0.429688 10.2885V33.6089C0.429688 39.2911 5.05837 43.8974 10.7681 43.8974H34.202C39.9117 43.8974 44.5404 39.2911 44.5404 33.6089V10.2885C44.5404 4.6063 39.9117 0 34.202 0Z"
                  fill="#242938"
                />
                <path
                  d="M21.0856 5.33568C21.9332 4.85288 23.037 4.85074 23.8837 5.33568C28.1435 7.73102 32.4046 10.1227 36.6637 12.5195C37.465 12.9686 38.0007 13.8558 37.9926 14.7744V29.186C37.9986 30.1426 37.4098 31.0511 36.5647 31.4899C32.3188 33.8722 28.0751 36.2572 23.8299 38.6395C22.9651 39.1316 21.8391 39.0937 21.001 38.5611C19.7281 37.8269 18.4531 37.0961 17.1801 36.3625C16.9199 36.2082 16.6267 36.0854 16.443 35.8344C16.6053 35.6166 16.8957 35.5895 17.1316 35.4943C17.6629 35.3261 18.151 35.0562 18.639 34.7944C18.7625 34.7103 18.9131 34.7426 19.0315 34.8177C20.12 35.4388 21.199 36.078 22.291 36.6931C22.524 36.827 22.7599 36.6492 22.9591 36.5388C27.1255 34.1952 31.297 31.8608 35.4629 29.5166C35.6173 29.4427 35.7026 29.2796 35.69 29.1114C35.693 24.3572 35.6907 19.6024 35.6916 14.8483C35.7092 14.6574 35.5982 14.4819 35.4247 14.4037C31.1937 12.0324 26.9645 9.65754 22.7342 7.28566C22.5841 7.18296 22.3862 7.1827 22.2359 7.28488C18.0054 9.65754 13.7773 12.0346 9.54691 14.4057C9.37405 14.484 9.25805 14.6567 9.27862 14.8483C9.27935 19.6024 9.27862 24.3572 9.27862 29.1121C9.2636 29.2803 9.3554 29.4399 9.50869 29.5123C10.6376 30.1493 11.768 30.7819 12.8976 31.4168C13.534 31.7576 14.3153 31.9602 15.0165 31.6991C15.6352 31.4782 16.0689 30.8498 16.0571 30.1961C16.063 25.4698 16.0542 20.7427 16.0615 16.0171C16.0461 15.8072 16.246 15.6339 16.451 15.6536C16.9935 15.65 17.5366 15.6464 18.079 15.6551C18.3054 15.65 18.4612 15.8759 18.4333 16.0873C18.431 20.8436 18.4391 25.5999 18.4296 30.3561C18.431 31.6238 17.9077 33.0031 16.7295 33.6234C15.2781 34.3715 13.484 34.2129 12.0501 33.4955C10.8087 32.8788 9.62408 32.1511 8.40475 31.4906C7.55739 31.0542 6.97153 30.1421 6.97749 29.1861V14.7744C6.9686 13.8368 7.52576 12.9334 8.35178 12.491C12.5969 10.1069 16.8413 7.72084 21.0856 5.33568Z"
                  fill="#81CD39"
                />
                <path
                  d="M24.7892 15.3187C26.6406 15.2001 28.6227 15.2485 30.2887 16.1561C31.5788 16.8517 32.2938 18.3116 32.3166 19.7378C32.2806 19.93 32.0785 20.0361 31.8939 20.0229C31.3568 20.0222 30.8194 20.0303 30.2823 20.0193C30.0544 20.0281 29.922 19.819 29.8934 19.6186C29.739 18.9361 29.365 18.2603 28.7197 17.9311C27.7289 17.4376 26.5803 17.4625 25.4999 17.4728C24.7113 17.5143 23.8632 17.5823 23.195 18.0438C22.682 18.3934 22.5262 19.0992 22.7092 19.6676C22.8819 20.0757 23.3552 20.2074 23.7427 20.3288C25.9739 20.9096 28.3383 20.8517 30.527 21.6159C31.4332 21.9275 32.3195 22.5333 32.6297 23.4774C33.0354 24.7429 32.8576 26.2553 31.9528 27.2711C31.2192 28.1071 30.1507 28.5622 29.085 28.8093C27.6672 29.1239 26.1959 29.132 24.7561 28.9922C23.4023 28.8386 21.9933 28.4847 20.9482 27.5668C20.0545 26.7944 19.618 25.591 19.6613 24.4298C19.6716 24.2336 19.8679 24.0968 20.0567 24.1129C20.5976 24.1086 21.1386 24.1071 21.6795 24.1138C21.8958 24.0983 22.0558 24.2842 22.067 24.4869C22.1666 25.137 22.4122 25.8194 22.982 26.2047C24.0813 26.9107 25.461 26.8623 26.7199 26.8821C27.7628 26.8361 28.9337 26.8222 29.7847 26.1361C30.2337 25.7448 30.3667 25.0902 30.2454 24.527C30.114 24.0515 29.6141 23.83 29.1849 23.6851C26.9823 22.9918 24.5913 23.2434 22.4101 22.4592C21.5244 22.1478 20.6681 21.559 20.3279 20.6536C19.8532 19.3722 20.0707 17.7871 21.0702 16.8056C22.0448 15.8292 23.4515 15.4533 24.7892 15.3187Z"
                  fill="#81CD39"
                />
              </g>
              <defs>
                <clipPath id="clip0_46_330">
                  <rect
                    width="44.1107"
                    height="43.8974"
                    fill="white"
                    transform="translate(0.429688)"
                  />
                </clipPath>
              </defs>
            </svg>