            <svg
              width="50"
              height="50"
              viewBox="0 0 44 44"
              fill="none"
              xmlns="http://www.w3.org/2000/svg"
            >
              <g clipPath="url(#clip0_46_327)">
                <path
                  d="M33.7201 0H10.9826C5.44252 0 0.951385 4.6063 0.951385 10.2885V33.6089C0.951385 39.2911 5.44252 43.8974 10.9826 43.8974H33.7201C39.2602 43.8974 43.7513 39.2911 43.7513 33.6089V10.2885C43.7513 4.6063 39.2602 0 33.7201 0Z"
                  fill="#242938"
                />
                <path
                  d="M21.2565 4.8105C21.1846 4.8172 20.9557 4.84068 20.7497 4.85743C16.0005 5.29659 11.552 7.92486 8.73451 11.9645C7.16559 14.2106 6.16215 16.7584 5.78298 19.457C5.64898 20.3991 5.63263 20.6774 5.63263 21.9545C5.63263 23.2319 5.64898 23.5102 5.78298 24.4521C6.69164 30.8919 11.1598 36.3028 17.2197 38.3075C18.3049 38.6662 19.4488 38.9109 20.7497 39.0584C21.2565 39.1153 23.4463 39.1153 23.953 39.0584C26.1985 38.8036 28.1008 38.2338 29.9769 37.2514C30.2645 37.1007 30.3202 37.0604 30.2809 37.027C30.2548 37.0067 29.029 35.3204 27.5582 33.2823L24.8846 29.5779L21.5342 24.4924C19.6907 21.6965 18.1742 19.41 18.161 19.41C18.1479 19.4068 18.1349 21.6663 18.1284 24.4253C18.1185 29.2561 18.1153 29.4505 18.0565 29.5644C17.9716 29.7287 17.9062 29.7957 17.7688 29.8696C17.6642 29.9231 17.5727 29.9332 17.0792 29.9332H16.5137L16.3633 29.836C16.2653 29.7724 16.1934 29.6885 16.1444 29.5913L16.0757 29.4404L16.0822 22.719L16.0921 15.994L16.1934 15.8633C16.2457 15.7929 16.3568 15.7024 16.4353 15.6588C16.5693 15.5918 16.6216 15.585 17.187 15.585C17.8539 15.585 17.9649 15.6119 18.1382 15.8063C18.1872 15.86 20.0012 18.6626 22.1716 22.0384C24.3419 25.4142 27.3098 30.0238 28.7675 32.2865L31.4151 36.4L31.5492 36.3095C32.7355 35.5183 33.9908 34.3919 34.9844 33.2185C37.0991 30.7277 38.4622 27.6905 38.9198 24.4521C39.0537 23.5102 39.0701 23.2319 39.0701 21.9545C39.0701 20.6774 39.0537 20.3991 38.9198 19.457C38.0111 13.0171 33.5429 7.60639 27.483 5.60166C26.4142 5.24632 25.2768 5.00159 24.002 4.85409C23.6882 4.82056 21.5276 4.78368 21.2565 4.8105ZM28.1008 15.1828C28.2576 15.2632 28.3852 15.4174 28.431 15.5783C28.457 15.6655 28.4636 17.5295 28.457 21.7299L28.4472 27.7576L27.4111 26.1282L26.3717 24.499V20.1175C26.3717 17.2848 26.3848 15.6923 26.4043 15.6152C26.4567 15.4275 26.571 15.28 26.728 15.1928C26.8619 15.1224 26.9111 15.1157 27.4242 15.1157C27.908 15.1157 27.9929 15.1224 28.1008 15.1828Z"
                  fill="white"
                />
              </g>
              <defs>
                <clipPath id="clip0_46_327">
                  <rect
                    width="42.8"
                    height="43.8974"
                    fill="white"
                    transform="translate(0.951385)"
                  />
                </clipPath>
              </defs>
            </svg>