 <svg
              width="50"
              height="50"
              viewBox="0 0 44 44"
              fill="none"
              xmlns="http://www.w3.org/2000/svg"
            >
              <g clipPath="url(#clip0_46_309)">
                <path
                  d="M33.5201 0H10.7826C5.24248 0 0.751343 4.6063 0.751343 10.2885V33.6089C0.751343 39.2911 5.24248 43.8974 10.7826 43.8974H33.5201C39.0602 43.8974 43.5513 39.2911 43.5513 33.6089V10.2885C43.5513 4.6063 39.0602 0 33.5201 0Z"
                  fill="#242938"
                />
                <path
                  d="M22.1515 25.1983C23.8742 25.1983 25.2705 23.766 25.2705 21.9993C25.2705 20.2326 23.8742 18.8003 22.1515 18.8003C20.429 18.8003 19.0324 20.2326 19.0324 21.9993C19.0324 23.766 20.429 25.1983 22.1515 25.1983Z"
                  fill="#00D8FF"
                />
                <path
                  fillRule="evenodd"
                  clipRule="evenodd"
                  d="M22.1517 15.495C26.3394 15.495 30.2296 16.1113 33.1629 17.147C36.6971 18.3949 38.8701 20.2864 38.8701 21.9993C38.8701 23.7842 36.5672 25.7937 32.7719 27.0833C29.9026 28.0583 26.1269 28.5673 22.1517 28.5673C18.076 28.5673 14.2164 28.0896 11.3148 27.0725C7.64372 25.7856 5.43259 23.7502 5.43259 21.9993C5.43259 20.3003 7.50731 18.4234 10.9918 17.1774C13.936 16.1246 17.9223 15.495 22.151 15.495H22.1517Z"
                  stroke="#00D8FF"
                  strokeWidth="1.04426"
                />
                <path
                  fillRule="evenodd"
                  clipRule="evenodd"
                  d="M16.631 18.7658C18.7231 15.0452 21.187 11.8966 23.5273 9.80787C26.3467 7.29123 29.0301 6.30563 30.4766 7.1612C31.9841 8.05286 32.531 11.1029 31.7243 15.1191C31.1149 18.1556 29.658 21.7644 27.672 25.2964C25.6358 28.9176 23.3044 32.1081 20.9961 34.1774C18.0751 36.7962 15.2512 37.7439 13.7724 36.8692C12.3375 36.0211 11.7887 33.2396 12.4771 29.5212C13.0588 26.3793 14.5184 22.523 16.6303 18.7658H16.631Z"
                  stroke="#00D8FF"
                  strokeWidth="1.04426"
                />
                <path
                  fillRule="evenodd"
                  clipRule="evenodd"
                  d="M16.6362 25.3058C14.5382 21.5893 13.1097 17.8268 12.5135 14.7042C11.7958 10.9419 12.3032 8.06537 13.7485 7.20731C15.2546 6.31304 18.1041 7.35041 21.0937 10.073C23.3541 12.1314 25.6751 15.2278 27.6668 18.7564C29.7089 22.3741 31.2393 26.0394 31.8347 29.1239C32.588 33.0273 31.9783 36.0097 30.5008 36.8868C29.0674 37.738 26.444 36.8369 23.6468 34.3681C21.2835 32.2822 18.7549 29.0594 16.6362 25.3058Z"
                  stroke="#00D8FF"
                  strokeWidth="1.04426"
                />
              </g>
              <defs>
                <clipPath id="clip0_46_309">
                  <rect
                    width="42.8"
                    height="43.8974"
                    fill="white"
                    transform="translate(0.751343)"
                  />
                </clipPath>
              </defs>
            </svg>