 <svg
              width="50"
              height="50"
              viewBox="0 0 44 44"
              fill="none"
              xmlns="http://www.w3.org/2000/svg"
            >
              <g clipPath="url(#clip0_46_318)">
                <path
                  d="M33.0174 0H10.2799C4.7398 0 0.248657 4.6063 0.248657 10.2885V33.6089C0.248657 39.2911 4.7398 43.8974 10.2799 43.8974H33.0174C38.5575 43.8974 43.0486 39.2911 43.0486 33.6089V10.2885C43.0486 4.6063 38.5575 0 33.0174 0Z"
                  fill="#764ABC"
                />
                <path
                  d="M28.0986 28.396C29.3326 28.265 30.2686 27.1739 30.226 25.8647C30.1835 24.5555 29.1197 23.5081 27.8433 23.5081H27.7582C26.4391 23.5517 25.4179 24.6863 25.4603 26.0392C25.503 26.6939 25.7583 27.2612 26.1411 27.654C24.6945 30.578 22.4819 32.7164 19.1629 34.5058C16.9077 35.7277 14.5674 36.1641 12.2272 35.8587C10.3124 35.5969 8.82312 34.7239 7.88701 33.2839C6.52538 31.1454 6.39774 28.8324 7.5466 26.5194C8.35507 24.8609 9.63157 23.6389 10.44 23.028C10.2698 22.4607 10.0145 21.5005 9.88689 20.8022C3.71705 25.3847 4.35531 31.5818 6.22752 34.5058C7.6317 36.6878 10.4826 38.0407 13.6313 38.0407C14.4823 38.0407 15.3334 37.9534 16.1844 37.7352C21.6309 36.6442 25.7583 33.3274 28.0986 28.396Z"
                  fill="white"
                />
                <path
                  d="M35.5874 22.9844C32.3536 19.1002 27.588 16.9618 22.1415 16.9618H21.4607C21.0777 16.1763 20.2692 15.6526 19.3757 15.6526H19.2906C17.9715 15.6962 16.9503 16.8309 16.9928 18.1839C17.0354 19.4931 18.0991 20.5404 19.3757 20.5404H19.4608C20.3969 20.4969 21.2054 19.8859 21.5458 19.0567H22.3117C25.5454 19.0567 28.6091 20.0167 31.3749 21.8934C33.5024 23.3336 35.0343 25.2102 35.8853 27.4795C36.6087 29.3124 36.5661 31.1017 35.8002 32.6292C34.6088 34.9422 32.6089 36.2079 29.9707 36.2079C28.2687 36.2079 26.6519 35.6842 25.8007 35.2913C25.3328 35.7277 24.4818 36.426 23.8861 36.8624C25.7156 37.7352 27.588 38.2153 29.375 38.2153C33.4599 38.2153 36.481 35.9023 37.6299 33.5893C38.8639 31.0581 38.7788 26.6939 35.5874 22.9844Z"
                  fill="white"
                />
                <path
                  d="M13.9718 29.138C14.0143 30.4472 15.0781 31.4945 16.3546 31.4945H16.4397C17.7587 31.4508 18.78 30.3162 18.7374 28.9632C18.6949 27.654 17.6311 26.6067 16.3546 26.6067H16.2695C16.1844 26.6067 16.0567 26.6067 15.9716 26.6504C14.2271 23.6827 13.5037 20.4531 13.759 16.9619C13.9292 14.3434 14.7802 12.074 16.2695 10.1974C17.5034 8.58269 19.8863 7.79713 21.5032 7.75349C26.0136 7.66621 27.9284 13.4269 28.0559 15.7399C28.6092 15.8708 29.5452 16.1763 30.1836 16.3945C29.673 9.32459 25.4179 5.65869 21.333 5.65869C17.5034 5.65869 13.9718 8.49539 12.5676 12.685C10.6103 18.2711 11.8868 23.639 14.2696 27.8723C14.0569 28.1777 13.9292 28.6578 13.9718 29.138Z"
                  fill="white"
                />
              </g>
              <defs>
                <clipPath id="clip0_46_318">
                  <rect
                    width="42.8"
                    height="43.8974"
                    fill="white"
                    transform="translate(0.248657)"
                  />
                </clipPath>
              </defs>
            </svg>
 
