 <svg
              width="50"
              height="50"
              viewBox="0 0 44 44"
              fill="none"
              xmlns="http://www.w3.org/2000/svg"
            >
              <g clipPath="url(#clip0_46_315)">
                <path
                  d="M33.32 0H10.5825C5.04244 0 0.5513 4.6063 0.5513 10.2885V33.6089C0.5513 39.2911 5.04244 43.8974 10.5825 43.8974H33.32C38.8601 43.8974 43.3513 39.2911 43.3513 33.6089V10.2885C43.3513 4.6063 38.8601 0 33.32 0Z"
                  fill="#242938"
                />
                <path
                  fillRule="evenodd"
                  clipRule="evenodd"
                  d="M14.4278 18.8622C15.4308 14.7469 17.939 12.6891 21.9513 12.6891C27.97 12.6891 28.7224 17.3189 31.7317 18.0905C33.7382 18.6051 35.4935 17.8335 36.9981 15.7756C35.9952 19.8908 33.487 21.9487 29.4747 21.9487C23.456 21.9487 22.7036 17.3189 19.6943 16.5473C17.6878 16.0327 15.9325 16.8043 14.4278 18.8622ZM6.90442 28.1218C7.90739 24.0066 10.4155 21.9487 14.4278 21.9487C20.4466 21.9487 21.1989 26.5785 24.2083 27.3501C26.2147 27.8647 27.97 27.0931 29.4747 25.0352C28.4718 29.1504 25.9636 31.2083 21.9513 31.2083C15.9325 31.2083 15.1802 26.5785 12.1708 25.8069C10.1644 25.2923 8.40911 26.0639 6.90442 28.1218Z"
                  fill="url(#paint0_linear_46_315)"
                />
              </g>
              <defs>
                <linearGradient
                  id="paint0_linear_46_315"
                  x1="15.013"
                  y1="12.6891"
                  x2="28.3317"
                  y2="31.4931"
                  gradientUnits="userSpaceOnUse"
                >
                  <stop stop-color="#32B1C1" />
                  <stop offset="1" stop-color="#14C6B7" />
                </linearGradient>
                <clipPath id="clip0_46_315">
                  <rect
                    width="42.8"
                    height="43.8974"
                    fill="white"
                    transform="translate(0.5513)"
                  />
                </clipPath>
              </defs>
            </svg>