<svg
              width="50"
              height="50"
              viewBox="0 0 45 44"
              fill="none"
              xmlns="http://www.w3.org/2000/svg"
            >
              <g clipPath="url(#clip0_46_323)">
                <path
                  d="M33.9602 0H10.6397C4.95755 0 0.351257 4.6063 0.351257 10.2885V33.6089C0.351257 39.2911 4.95755 43.8974 10.6397 43.8974H33.9602C39.6424 43.8974 44.2487 39.2911 44.2487 33.6089V10.2885C44.2487 4.6063 39.6424 0 33.9602 0Z"
                  fill="#007ACC"
                />
                <path
                  d="M10.0586 22.0943L10.0447 23.892H12.9015H15.7583V32.0096V40.127H17.779H19.7997V32.0096V23.892H22.6565H25.5132V22.1291C25.5132 21.1536 25.4925 20.3384 25.4645 20.3175C25.4436 20.2897 21.9666 20.2756 17.7511 20.2827L10.0795 20.3036L10.0586 22.0943Z"
                  fill="white"
                />
                <path
                  d="M35.7722 20.2524C36.8869 20.5313 37.7371 21.026 38.5175 21.8341C38.9216 22.2662 39.5208 23.0536 39.5696 23.2417C39.5835 23.2975 37.6743 24.5796 36.5177 25.2972C36.4759 25.3252 36.3085 25.1439 36.1204 24.8653C35.5561 24.043 34.9638 23.6876 34.0579 23.625C32.7271 23.5343 31.8701 24.2312 31.8771 25.3948C31.8771 25.7362 31.9258 25.9382 32.0652 26.217C32.3578 26.8232 32.9013 27.1855 34.6085 27.924C37.751 29.2759 39.0957 30.1678 39.932 31.4358C40.8656 32.8503 41.0747 35.1079 40.4406 36.7872C39.7439 38.6127 38.0157 39.853 35.5839 40.2642C34.8315 40.3965 33.0476 40.3756 32.2395 40.2294C30.4765 39.9157 28.8043 39.0448 27.7731 37.9021C27.3689 37.4561 26.5815 36.2925 26.6304 36.2088C26.6511 36.181 26.8324 36.0696 27.0344 35.9511C27.2295 35.8396 27.9682 35.4145 28.6649 35.0104L29.9261 34.2787L30.1909 34.669C30.5602 35.2333 31.3684 36.0068 31.8562 36.2645C33.2566 37.0032 35.1799 36.8986 36.1275 36.0486C36.5316 35.6793 36.6988 35.296 36.6988 34.7317C36.6988 34.223 36.6361 34 36.3713 33.6168C36.0299 33.1291 35.3332 32.7179 33.3542 31.8609C31.0897 30.8854 30.1142 30.2792 29.2224 29.3176C28.7067 28.7603 28.2189 27.8683 28.0169 27.1227C27.8497 26.5027 27.8079 24.9488 27.9403 24.3217C28.407 22.1339 30.0585 20.6079 32.4415 20.1549C33.215 20.0086 35.0125 20.0643 35.7722 20.2524Z"
                  fill="white"
                />
              </g>
              <defs>
                <clipPath id="clip0_46_323">
                  <rect
                    width="43.8974"
                    height="43.8974"
                    fill="white"
                    transform="translate(0.351257)"
                  />
                </clipPath>
              </defs>
            </svg>