<svg
              width="50"
              height="50"
              viewBox="0 0 44 43"
              fill="none"
              xmlns="http://www.w3.org/2000/svg"
            >
              <g clipPath="url(#clip0_46_370)">
                <path
                  d="M33.7174 0H10.9799C5.43984 0 0.9487 4.49114 0.9487 10.0312V32.7687C0.9487 38.3088 5.43984 42.8 10.9799 42.8H33.7174C39.2575 42.8 43.7487 38.3088 43.7487 32.7687V10.0312C43.7487 4.49114 39.2575 0 33.7174 0Z"
                  fill="#2396ED"
                />
                <path
                  d="M24.5534 20.4175H28.017V17.2837H24.5534V20.4175ZM20.4302 20.4175H23.8937V17.2837H20.4302V20.4175ZM16.3894 20.4175H19.8529V17.2837H16.3894V20.4175ZM12.3485 20.4175H15.7296V17.2837H12.3485V20.4175ZM8.22524 20.4175H11.6888V17.2837H8.22524V20.4175ZM12.3485 16.624H15.7296V13.4903H12.3485V16.624ZM16.3894 16.624H19.8529V13.4903H16.3894V16.624ZM20.4302 16.624H23.8937V13.4903H20.4302V16.624ZM20.4302 12.8306H23.8937V9.6969H20.4302V12.8306ZM39.0674 19.0156C39.0674 19.0156 37.583 17.6136 34.5318 18.1084C34.2019 15.7169 31.6455 14.315 31.6455 14.315C31.6455 14.315 29.254 17.2013 30.9857 20.4175C30.491 20.6649 29.6663 20.9948 28.4293 20.9948H5.75127C5.33894 22.5616 5.33894 32.9522 16.7192 32.9522C24.8832 32.9522 30.9857 29.1588 33.8721 22.2316C38.1603 22.5616 39.0674 19.0156 39.0674 19.0156Z"
                  fill="white"
                />
              </g>
              <defs>
                <clipPath id="clip0_46_370">
                  <rect
                    width="42.8"
                    height="42.8"
                    fill="white"
                    transform="translate(0.9487)"
                  />
                </clipPath>
              </defs>
            </svg>