<svg
              width="50"
              height="50"
              viewBox="0 0 45 43"
              fill="none"
              xmlns="http://www.w3.org/2000/svg"
            >
              <g clipPath="url(#clip0_46_373)">
                <path
                  d="M34.3576 0H11.0371C5.35495 0 0.748657 4.49114 0.748657 10.0312V32.7687C0.748657 38.3088 5.35495 42.8 11.0371 42.8H34.3576C40.0398 42.8 44.6461 38.3088 44.6461 32.7687V10.0312C44.6461 4.49114 40.0398 0 34.3576 0Z"
                  fill="#F03C2E"
                />
                <mask
                  id="mask0_46_373"
                  maskUnits="userSpaceOnUse"
                  x="5"
                  y="4"
                  width="35"
                  height="35"
                >
                  <path
                    d="M39.8448 4.68127H5.54993V38.1187H39.8448V4.68127Z"
                    fill="white"
                  />
                </mask>
                <g mask="url(#mask0_46_373)">
                  <path
                    d="M39.1975 19.911L24.2245 5.31237C24.0196 5.11236 23.7761 4.95372 23.5083 4.84548C23.2403 4.73723 22.953 4.68152 22.6631 4.68152C22.3731 4.68152 22.0859 4.73723 21.8179 4.84548C21.55 4.95372 21.3065 5.11236 21.1016 5.31237L17.9937 8.34264L21.9376 12.1879C22.855 11.8745 23.9052 12.0887 24.6361 12.8013C24.984 13.1411 25.227 13.5695 25.337 14.0376C25.4471 14.5056 25.42 14.9944 25.2587 15.4481L29.0601 19.1545C29.9797 18.8452 31.0406 19.0446 31.7747 19.7625C32.0189 20.0006 32.2125 20.2832 32.3445 20.5941C32.4765 20.9051 32.5444 21.2383 32.5444 21.5748C32.5443 21.9114 32.4764 22.2446 32.3442 22.5556C32.212 22.8664 32.0184 23.1489 31.7742 23.3868C31.5302 23.6249 31.2404 23.8135 30.9214 23.9422C30.6025 24.0711 30.2608 24.1373 29.9156 24.1372C29.5704 24.1372 29.2285 24.0708 28.9097 23.9421C28.5908 23.8132 28.301 23.6244 28.057 23.3863C27.2853 22.634 27.0947 21.5264 27.4848 20.5995L23.9395 17.1429V26.239C24.1969 26.3631 24.432 26.5269 24.6361 26.7239C24.8801 26.9618 25.0737 27.2442 25.2059 27.5551C25.3379 27.8659 25.4058 28.1991 25.4058 28.5357C25.4058 28.8722 25.3379 29.2054 25.2059 29.5162C25.0737 29.8272 24.8801 30.1098 24.6361 30.3477C24.392 30.5856 24.1023 30.7743 23.7835 30.9031C23.4645 31.0318 23.1228 31.0982 22.7778 31.0982C22.4326 31.0982 22.0909 31.0318 21.7721 30.9031C21.4532 30.7743 21.1634 30.5856 20.9194 30.3477C20.675 30.1098 20.4812 29.8274 20.349 29.5166C20.2167 29.2056 20.1486 28.8722 20.1486 28.5357C20.1486 28.1991 20.2167 27.8659 20.349 27.555C20.4812 27.244 20.675 26.9616 20.9194 26.7239C21.1733 26.4773 21.4552 26.2902 21.78 26.1648V16.984C21.467 16.8587 21.1733 16.6738 20.9194 16.4251C20.5503 16.0657 20.2995 15.6074 20.1986 15.1084C20.098 14.6095 20.1518 14.0926 20.3535 13.6237L16.4632 9.83269L6.19618 19.8326C5.99091 20.0325 5.82806 20.2699 5.71695 20.5313C5.60583 20.7926 5.54865 21.0726 5.54865 21.3555C5.54865 21.6384 5.60583 21.9186 5.71695 22.1799C5.82806 22.4412 5.99091 22.6786 6.19618 22.8786L21.1702 37.476C21.3751 37.676 21.6186 37.8347 21.8865 37.943C22.1545 38.0512 22.4417 38.1068 22.7317 38.1068C23.0216 38.1068 23.3088 38.0512 23.5769 37.943C23.8447 37.8347 24.0882 37.676 24.2931 37.476L39.1975 22.9674C39.4027 22.7674 39.5656 22.53 39.6767 22.2687C39.7879 22.0074 39.845 21.7273 39.845 21.4444C39.845 21.1616 39.7879 20.8814 39.6767 20.62C39.5656 20.3587 39.4027 20.1213 39.1975 19.9214"
                    fill="white"
                  />
                </g>
              </g>
              <defs>
                <clipPath id="clip0_46_373">
                  <rect
                    width="43.8974"
                    height="42.8"
                    fill="white"
                    transform="translate(0.748657)"
                  />
                </clipPath>
              </defs>
            </svg>