 <svg
              width="50"
              height="50"
              viewBox="0 0 44 43"
              fill="none"
              xmlns="http://www.w3.org/2000/svg"
            >
              <g clip-path="url(#clip0_46_380)">
                <path
                  d="M33.6089 0H10.2885C4.6063 0 0 4.49114 0 10.0312V32.7687C0 38.3088 4.6063 42.8 10.2885 42.8H33.6089C39.2911 42.8 43.8974 38.3088 43.8974 32.7687V10.0312C43.8974 4.49114 39.2911 0 33.6089 0Z"
                  fill="#00599C"
                />
                <path
                  d="M18.9923 35.1958C11.1673 35.1958 4.80127 28.989 4.80127 21.3597C4.80127 13.7303 11.1673 7.52344 18.9923 7.52344C24.0414 7.52344 28.7506 10.1727 31.2815 14.4372L25.14 17.9023C23.8733 15.7676 21.5174 14.4415 18.9923 14.4415C15.0797 14.4415 11.8968 17.545 11.8968 21.3597C11.8968 25.1742 15.0797 28.2777 18.9923 28.2777C21.5176 28.2777 23.8735 26.9516 25.1403 24.8166L31.2819 28.2816C28.7509 32.5465 24.0417 35.1958 18.9923 35.1958Z"
                  fill="white"
                />
                <path
                  d="M33.1832 20.5909H31.6063V19.0535H30.0298V20.5909H28.4529V22.1282H30.0298V23.6657H31.6063V22.1282H33.1832V20.5909Z"
                  fill="white"
                />
                <path
                  d="M39.0961 20.5909H37.5193V19.0535H35.9427V20.5909H34.3658V22.1282H35.9427V23.6657H37.5193V22.1282H39.0961V20.5909Z"
                  fill="white"
                />
              </g>
              <defs>
                <clipPath id="clip0_46_380">
                  <rect width="43.8974" height="42.8" fill="white" />
                </clipPath>
              </defs>
            </svg>