<svg
              width="50"
              height="50"
              viewBox="0 0 44 43"
              fill="none"
              xmlns="http://www.w3.org/2000/svg"
            >
              <g clip-path="url(#clip0_46_385)">
                <path
                  d="M33.6661 0H10.9286C5.38854 0 0.8974 4.49114 0.8974 10.0312V32.7687C0.8974 38.3088 5.38854 42.8 10.9286 42.8H33.6661C39.2062 42.8 43.6974 38.3088 43.6974 32.7687V10.0312C43.6974 4.49114 39.2062 0 33.6661 0Z"
                  fill="#242938"
                />
                <path
                  d="M22.1769 4.84839C13.6884 4.84839 14.2184 8.52952 14.2184 8.52952L14.2279 12.3431H22.3283V13.4882H11.0105C11.0105 13.4882 5.57867 12.8721 5.57867 21.4371C5.57867 30.0021 10.3197 29.6984 10.3197 29.6984H13.1491V25.7239C13.1491 25.7239 12.9966 20.983 17.8144 20.983H25.8485C25.8485 20.983 30.3624 21.0559 30.3624 16.6204V9.28656C30.3624 9.28656 31.0477 4.84839 22.1769 4.84839ZM17.7103 7.41288C18.5163 7.41288 19.1677 8.06425 19.1677 8.87018C19.1677 9.67611 18.5163 10.3275 17.7103 10.3275C16.9044 10.3275 16.253 9.67611 16.253 8.87018C16.253 8.06425 16.9044 7.41288 17.7103 7.41288Z"
                  fill="url(#paint0_linear_46_385)"
                />
                <path
                  d="M22.4179 38.1117C30.9063 38.1117 30.3764 34.4308 30.3764 34.4308L30.3668 30.617H22.2664V29.472H33.5844C33.5844 29.472 39.0161 30.0881 39.0161 21.5231C39.0161 12.9581 34.2752 13.2618 34.2752 13.2618H31.4457V17.2364C31.4457 17.2364 31.5982 21.9773 26.7803 21.9773H18.7463C18.7463 21.9773 14.2324 21.9042 14.2324 26.3397V33.6736C14.2324 33.6736 13.547 38.1117 22.4179 38.1117ZM26.8845 35.5472C26.0785 35.5472 25.4271 34.8959 25.4271 34.09C25.4271 33.284 26.0785 32.6327 26.8845 32.6327C27.6903 32.6327 28.3419 33.284 28.3419 34.09C28.3419 34.8959 27.6903 35.5472 26.8845 35.5472Z"
                  fill="url(#paint1_linear_46_385)"
                />
              </g>
              <defs>
                <linearGradient
                  id="paint0_linear_46_385"
                  x1="8.79202"
                  y1="7.84037"
                  x2="25.3625"
                  y2="24.2455"
                  gradientUnits="userSpaceOnUse"
                >
                  <stop stop-color="#387EB8" />
                  <stop offset="1" stop-color="#366994" />
                </linearGradient>
                <linearGradient
                  id="paint1_linear_46_385"
                  x1="18.963"
                  y1="18.3748"
                  x2="36.7577"
                  y2="35.1966"
                  gradientUnits="userSpaceOnUse"
                >
                  <stop stop-color="#FFE052" />
                  <stop offset="1" stop-color="#FFC331" />
                </linearGradient>
                <clipPath id="clip0_46_385">
                  <rect
                    width="42.8"
                    height="42.8"
                    fill="white"
                    transform="translate(0.8974)"
                  />
                </clipPath>
              </defs>
            </svg>