<svg
              xmlns="http://www.w3.org/2000/svg"
              width="50"
              height="50"
              fill="none"
              viewBox="0 0 256 256"
            >
              <rect width="256" height="256" fill="#242938" rx="60" />
              <mask
                id="mask0_147_896"
                width="146"
                height="200"
                x="55"
                y="28"
                maskUnits="userSpaceOnUse"
              >
                <path
                  fill="#fff"
                  d="M182.035 72.67C181.751 70.9857 180.55 69.5989 178.92 69.0732C177.289 68.5475 175.5 68.9705 174.28 70.1702L150.675 93.9185L131.973 58.5801C131.223 57.0665 129.676 56.1083 127.982 56.1083C126.288 56.1083 124.741 57.0665 123.991 58.5801L113.842 77.8969L88.1841 30.4003C86.1315 26.5369 80.3157 27.5596 79.6315 31.8775L55 189.366L121.026 226.295C125.181 228.568 130.213 228.568 134.368 226.295L200.964 189.366L182.035 72.67Z"
                />
              </mask>
              <g mask="url(#mask0_147_896)">
                <path
                  fill="url(#paint0_linear_147_896)"
                  d="M182.035 72.67C181.751 70.9857 180.55 69.5989 178.92 69.0732C177.289 68.5475 175.5 68.9705 174.28 70.1702L150.675 93.9185L131.973 58.5801C131.223 57.0665 129.676 56.1083 127.982 56.1083C126.288 56.1083 124.741 57.0665 123.991 58.5801L113.842 77.8969L88.1841 30.4003C86.1315 26.5369 80.3157 27.5596 79.6315 31.8775L55 189.366L121.026 226.295C125.181 228.568 130.213 228.568 134.368 226.295L200.964 189.366L182.035 72.67Z"
                />
                <path
                  fill="#FFA000"
                  d="M55 189.366L79.7455 31.8775C80.4297 27.5596 86.2455 26.5369 88.2981 30.4003L113.842 77.8969L123.991 58.5801C124.776 57.0744 126.337 56.1294 128.039 56.1294C129.742 56.1294 131.303 57.0744 132.087 58.5801L200.964 189.366H55Z"
                />
                <rect
                  width="99.21"
                  height="126.127"
                  x="45.877"
                  y="67.784"
                  fill="url(#pattern0)"
                />
                <path
                  fill="#F57C00"
                  d="M140.298 128.007L113.728 77.8969L55 189.366L140.298 128.007Z"
                />
                <rect
                  width="159.649"
                  height="174.988"
                  x="50.439"
                  y="58.694"
                  fill="url(#pattern1)"
                />
                <path
                  fill="#FFCA28"
                  d="M200.965 189.366L182.035 72.6702C181.752 70.9859 180.551 69.599 178.92 69.0734C177.289 68.5477 175.501 68.9706 174.281 70.1704L55.0005 189.366L121.027 226.296C125.182 228.568 130.214 228.568 134.369 226.296L200.965 189.366Z"
                />
                <path
                  fill="#fff"
                  fill-opacity=".2"
                  d="M182.035 72.67C181.752 70.9857 180.55 69.5989 178.92 69.0732C177.289 68.5475 175.5 68.9705 174.281 70.1702L150.675 93.9185L131.974 58.5801C131.224 57.0665 129.677 56.1083 127.983 56.1083C126.288 56.1083 124.741 57.0665 123.991 58.5801L113.842 77.8969L88.1844 30.4003C86.1317 26.5369 80.316 27.5596 79.6318 31.8775L55.0003 189.366H54.8862L55.0003 189.48L55.6845 189.821L150.561 95.0548L174.281 71.4201C175.5 70.2204 177.289 69.7974 178.92 70.3231C180.55 70.8488 181.752 72.2356 182.035 73.9199L200.737 189.48L200.965 189.366L182.035 72.67ZM55.2283 189.139L79.7458 33.0137C80.43 28.6959 86.2458 27.6732 88.2984 31.5366L113.842 79.0332L123.991 59.7164C124.776 58.2106 126.337 57.2657 128.04 57.2657C129.742 57.2657 131.303 58.2106 132.088 59.7164L150.333 94.2594L55.2283 189.139Z"
                />
                <path
                  fill="#A52714"
                  d="M134.368 225.159C130.213 227.432 125.181 227.432 121.026 225.159L55.114 188.344L55 189.366L121.026 226.295C125.181 228.568 130.213 228.568 134.368 226.295L200.964 189.366L200.85 188.344L134.368 225.159Z"
                  opacity=".2"
                />
                <path
                  fill="url(#paint1_linear_147_896)"
                  d="M182.035 72.67C181.751 70.9857 180.55 69.5989 178.92 69.0732C177.289 68.5475 175.5 68.9705 174.28 70.1702L150.675 93.9185L131.973 58.5801C131.223 57.0665 129.676 56.1083 127.982 56.1083C126.288 56.1083 124.741 57.0665 123.991 58.5801L113.842 77.8969L88.1841 30.4003C86.1315 26.5369 80.3157 27.5596 79.6315 31.8775L55 189.366L121.026 226.295C125.181 228.568 130.213 228.568 134.368 226.295L200.964 189.366L182.035 72.67Z"
                />
              </g>
              <defs>
                <pattern
                  id="pattern0"
                  width="1"
                  height="1"
                  patternContentUnits="objectBoundingBox"
                >
                  <use transform="scale(0.0114943 0.00892857)" />
                </pattern>
                <pattern
                  id="pattern1"
                  width="1"
                  height="1"
                  patternContentUnits="objectBoundingBox"
                >
                  <use transform="scale(0.00714286 0.00645161)" />
                </pattern>
                <linearGradient
                  id="paint0_linear_147_896"
                  x1="49.918"
                  x2="231.544"
                  y1="62.053"
                  y2="158.45"
                  gradientUnits="userSpaceOnUse"
                >
                  <stop stopColor="#fff" stop-opacity=".1" />
                  <stop offset="1" stopColor="#fff" stop-opacity="0" />
                </linearGradient>
                <linearGradient
                  id="paint1_linear_147_896"
                  x1="49.918"
                  x2="231.544"
                  y1="62.053"
                  y2="158.45"
                  gradientUnits="userSpaceOnUse"
                >
                  <stop stopColor="#fff" stop-opacity=".1" />
                  <stop offset="1" stopColor="#fff" stop-opacity="0" />
                </linearGradient>
                <image id="image0_147_896" width="87" height="112" />
                <image id="image1_147_896" width="140" height="155" />
              </defs>
            </svg>