<svg
              width="50"
              height="50"
              viewBox="0 0 44 44"
              fill="none"
              xmlns="http://www.w3.org/2000/svg"
            >
              <g clipPath="url(#clip0_46_360)">
                <path
                  d="M33.5687 0H10.8312C5.2911 0 0.799957 4.6063 0.799957 10.2885V33.6089C0.799957 39.2911 5.2911 43.8974 10.8312 43.8974H33.5687C39.1088 43.8974 43.5999 39.2911 43.5999 33.6089V10.2885C43.5999 4.6063 39.1088 0 33.5687 0Z"
                  fill="#242938"
                />
                <path
                  d="M34.8192 25.4961C31.422 26.2146 31.1752 25.0343 31.1752 25.0343C34.7641 19.5725 36.2652 12.6399 34.9697 10.9435C31.4385 6.31372 25.3245 8.50444 25.2222 8.56109L25.1892 8.56713C24.4426 8.41345 23.6834 8.33231 22.9217 8.32478C21.3841 8.30068 20.2179 8.73833 19.3317 9.42678C19.3317 9.42678 8.425 4.81867 8.93284 15.2225C9.04099 17.4362 12.0245 31.9815 15.5864 27.5807C16.8983 25.9627 18.156 24.6038 18.156 24.6038C18.7791 25.0294 19.5279 25.2465 20.3121 25.1681L20.3731 25.1151C20.3552 25.3235 20.3636 25.5333 20.3978 25.7396C19.481 26.7909 19.7513 26.9754 17.9174 27.3625C16.0625 27.7543 17.1534 28.4523 17.8634 28.6356C18.7263 28.8575 20.7223 29.171 22.0719 27.2347L22.0177 27.4552C22.3775 27.7507 22.6289 29.3759 22.5866 30.8492C22.5443 32.3227 22.5161 33.333 22.7983 34.1239C23.0803 34.9149 23.3626 36.692 25.7724 36.1735C27.7862 35.7311 28.8287 34.582 28.9757 32.6699C29.0792 31.3098 29.3119 31.5099 29.3285 30.2947L29.5166 29.7183C29.7316 27.8736 29.5517 27.2793 30.7919 27.5566L31.094 27.5843C32.0075 27.6265 33.203 27.4336 33.9036 27.0996C35.4141 26.3811 36.3099 25.1801 34.8204 25.4961H34.8192Z"
                  fill="#336791"
                />
                <path
                  d="M25.221 8.33294C24.8448 8.45352 31.2916 5.91557 34.9568 10.7178C36.25 12.4142 34.7512 19.3469 31.1622 24.8085M22.2163 26.37C22.1224 29.8013 22.2399 33.2567 22.5667 34.0863C22.8934 34.9157 23.5953 36.5579 26.0063 36.0298C28.0201 35.5874 28.7535 34.73 29.071 32.8383L29.815 26.7896L22.2163 26.37ZM19.327 9.16849C19.327 9.16849 8.41325 4.59174 8.92108 14.9955C9.02924 17.2091 12.0127 31.7544 15.5746 27.3537C16.8748 25.7465 18.0503 24.4891 18.0503 24.4891L19.327 9.16849Z"
                  stroke="white"
                  strokeWidth="0.589922"
                  strokeLinecap="round"
                  strokeLinejoin="round"
                />
                <path
                  d="M31.1634 24.8061C31.1634 24.8061 31.3986 25.9878 34.8075 25.2667C36.297 24.9509 35.4 26.1517 33.8907 26.8704C32.6517 27.4611 29.8727 27.6118 29.8269 26.798C29.7093 24.694 31.2892 25.3331 31.1752 24.8061C31.0717 24.3312 30.364 23.8658 29.8986 22.7035C29.4906 21.6906 24.303 13.9141 31.3374 15.0679C31.596 15.0137 29.5035 8.19555 22.9205 8.09669C16.3375 7.99782 16.5456 16.3978 16.5456 16.3978"
                  stroke="white"
                  strokeWidth="0.589922"
                  strokeLinecap="round"
                  strokeLinejoin="bevel"
                />
                <path
                  d="M20.3743 25.5272C19.4574 26.5785 19.7277 26.763 17.894 27.15C16.039 27.5419 17.1298 28.2399 17.8399 28.4232C18.7027 28.6451 20.6988 28.9586 22.0483 27.0209C22.4597 26.4302 22.046 25.4898 21.4817 25.2511C21.209 25.1354 20.8446 24.9907 20.3768 25.5284L20.3743 25.5272Z"
                  stroke="white"
                  strokeWidth="0.589922"
                  strokeLinejoin="round"
                />
                <path
                  d="M20.3144 25.509C20.2203 24.8905 20.5118 24.1562 20.8233 23.2954C21.2913 22.0054 22.3705 20.7153 21.5076 16.6196C20.8646 13.5692 16.5468 15.9842 16.5468 16.3977C16.5468 16.8113 16.7419 18.4957 16.4762 20.4548C16.1271 23.0133 18.0632 25.1763 20.292 24.9556"
                  stroke="white"
                  strokeWidth="0.589922"
                  strokeLinecap="round"
                  strokeLinejoin="round"
                />
                <path
                  d="M19.287 16.3362C19.267 16.4773 19.5397 16.8547 19.8936 16.9053C20.2474 16.9559 20.5495 16.6618 20.5695 16.5195C20.5894 16.3772 20.3167 16.2229 19.963 16.1722C19.609 16.1216 19.3046 16.1964 19.287 16.3362Z"
                  fill="white"
                  stroke="white"
                  strokeWidth="0.196875"
                />
                <path
                  d="M30.0596 16.0481C30.0783 16.1892 29.8068 16.5666 29.453 16.6172C29.0991 16.6679 28.7946 16.3737 28.7771 16.2314C28.7594 16.0891 29.0299 15.9348 29.3836 15.8842C29.7374 15.8335 30.0419 15.9083 30.0596 16.0481Z"
                  fill="white"
                  stroke="white"
                  strokeWidth="0.0980859"
                />
                <path
                  d="M31.3245 15.0703C31.3832 16.1795 31.0916 16.9331 31.054 18.1135C31 19.8279 31.8512 21.7908 30.5685 23.756"
                  stroke="white"
                  strokeWidth="0.589922"
                  strokeLinecap="round"
                  strokeLinejoin="round"
                />
              </g>
              <defs>
                <clipPath id="clip0_46_360">
                  <rect
                    width="42.8"
                    height="43.8974"
                    fill="white"
                    transform="translate(0.799957)"
                  />
                </clipPath>
              </defs>
            </svg>